<?xml version="1.0" encoding="UTF-8" standalone="no"?>
<!-- Created with Inkscape (http://www.inkscape.org/) -->

<svg
   xmlns:dc="http://purl.org/dc/elements/1.1/"
   xmlns:cc="http://creativecommons.org/ns#"
   xmlns:rdf="http://www.w3.org/1999/02/22-rdf-syntax-ns#"
   xmlns:svg="http://www.w3.org/2000/svg"
   xmlns="http://www.w3.org/2000/svg"
   xmlns:sodipodi="http://sodipodi.sourceforge.net/DTD/sodipodi-0.dtd"
   xmlns:inkscape="http://www.inkscape.org/namespaces/inkscape"
   width="162.48178mm"
   height="37.579956mm"
   viewBox="0 0 162.48178 37.579956"
   version="1.1"
   id="svg8"
   inkscape:version="0.92.4 (5da689c313, 2019-01-14)"
   sodipodi:docname="logo-title.svg"
   inkscape:export-filename="C:\Users\EPAJX\Downloads\webDev\yajmaa2\logo_print.png"
   inkscape:export-xdpi="200.01762"
   inkscape:export-ydpi="200.01762">
  <title
     id="title4579">Yajmaa Logo</title>
  <defs
     id="defs2" />
  <sodipodi:namedview
     id="base"
     pagecolor="#ffffff"
     bordercolor="#666666"
     borderopacity="1.0"
     inkscape:pageopacity="0.0"
     inkscape:pageshadow="2"
     inkscape:zoom="0.49497475"
     inkscape:cx="125.26648"
     inkscape:cy="-116.62255"
     inkscape:document-units="mm"
     inkscape:current-layer="text34"
     showgrid="false"
     inkscape:snap-global="false"
     inkscape:window-width="1366"
     inkscape:window-height="715"
     inkscape:window-x="-8"
     inkscape:window-y="-8"
     inkscape:window-maximized="1" />
  <metadata
     id="metadata5">
    <rdf:RDF>
      <cc:Work
         rdf:about="">
        <dc:format>image/svg+xml</dc:format>
        <dc:type
           rdf:resource="http://purl.org/dc/dcmitype/StillImage" />
        <dc:title>Yajmaa Logo</dc:title>
      </cc:Work>
    </rdf:RDF>
  </metadata>
  <g
     inkscape:label="Layer 1"
     inkscape:groupmode="layer"
     id="layer1"
     transform="translate(-75.047756,-16.185855)">
    <flowRoot
       xml:space="preserve"
       id="flowRoot14"
       style="font-style:normal;font-weight:normal;font-size:40px;line-height:125%;font-family:sans-serif;letter-spacing:0px;word-spacing:0px;fill:#000000;fill-opacity:1;stroke:none;stroke-width:1px;stroke-linecap:butt;stroke-linejoin:miter;stroke-opacity:1"
       transform="scale(0.26458333)"><flowRegion
         id="flowRegion16"><rect
           id="rect18"
           width="242.85715"
           height="240"
           x="197.14285"
           y="368.23398" /></flowRegion><flowPara
         id="flowPara20" /></flowRoot>    <g
       aria-label="y"
       transform="scale(1.0451586,0.95679259)"
       style="font-style:normal;font-variant:normal;font-weight:bold;font-stretch:normal;font-size:35.42802048px;line-height:125%;font-family:'Segoe UI';-inkscape-font-specification:'Segoe UI Bold';letter-spacing:0px;word-spacing:0px;fill:#ffffff;fill-opacity:1;stroke:none;stroke-width:0.88570058px;stroke-linecap:butt;stroke-linejoin:miter;stroke-opacity:1"
       id="text34">
      <g
         id="g4571">
        <path
           style="fill:#241daa;fill-opacity:1;stroke-width:0.26458332"
           inkscape:transform-center-x="1.2190476e-06"
           d="m 105.82918,40.33155 -3.61585,6.786691 -5.456903,0.85849 -7.355708,2.242123 -4.46566,-3.251571 -6.786691,-3.61585 -0.85849,-5.456907 -2.242123,-7.355707 3.251571,-4.46566 3.615851,-6.786691 5.456906,-0.858491 7.355708,-2.242123 4.465659,3.251572 6.78669,3.61585 0.85849,5.456906 2.24212,7.355708 z"
           inkscape:randomized="0"
           inkscape:rounded="0"
           inkscape:flatsided="false"
           sodipodi:arg2="0.94066496"
           sodipodi:arg1="0.47788426"
           sodipodi:r2="17.223696"
           sodipodi:r1="15.501571"
           sodipodi:cy="33.202354"
           sodipodi:cx="92.064255"
           sodipodi:sides="8"
           id="path30"
           sodipodi:type="star"
           transform="scale(0.9567926,1.0451586)" />
        <path
           style="font-style:normal;font-variant:normal;font-weight:bold;font-stretch:normal;font-family:'Segoe UI';-inkscape-font-specification:'Segoe UI Bold';opacity:0.2;fill:#185710;fill-opacity:1;stroke-width:0.88570064px"
           d="m 81.242288,33.507754 5.157952,12.6715 -0.93399,2.197129 c -0.553563,1.326245 -3.052843,3.64838 -4.459815,3.64838 -0.853409,0 -1.643282,-0.213316 -2.369834,-0.640021 v 4.359694 c 0.853409,0.299846 1.94297,0.449364 3.269215,0.449364 3.482831,0 7.608039,-3.959645 9.337921,-8.561138 l 4.941826,-13.137914 c 0.590615,-1.760953 1.232371,-1.75104 -0.561188,-1.75104 h -2.667132 c -1.232858,-0.121129 -1.247391,0.01809 -1.617352,1.216172 l -1.652638,5.351992 c -0.276783,0.888006 -0.467282,1.666506 -0.571074,2.335395 h -0.06922 c -0.115326,-0.911072 -0.276467,-1.701073 -0.484054,-2.369961 l -1.809751,-5.9019 C 86.609202,32.613042 86.39093,32.743708 85.73565,32.743708 h -4.158917 c -0.790595,-0.0649 -0.618981,0.06503 -0.334445,0.764046 z"
           id="path4565"
           inkscape:connector-curvature="0"
           sodipodi:nodetypes="cccsccsccccccccccccc" />
        <path
           sodipodi:nodetypes="cccsccsccccccccccccc"
           inkscape:connector-curvature="0"
           id="path36"
           d="m 318.54495,118.1614 20.37497,45.82298 -3.68945,7.94531 c -2.18669,4.796 -12.05936,13.19336 -17.61719,13.19336 -3.37114,0 -6.4913,-0.7714 -9.36133,-2.31446 v 15.76563 c 3.37114,1.08431 7.67513,1.625 12.91407,1.625 13.7579,0 30.05332,-14.31896 36.88671,-30.95899 l 19.52123,-47.50964 c 2.33305,-6.368 4.86812,-6.33215 -2.21681,-6.33215 h -10.53572 c -4.87004,-0.43803 -4.92745,0.0654 -6.38887,4.39795 l -6.52826,19.354 c -1.09335,3.21123 -1.84586,6.02646 -2.25586,8.44531 H 349.375 c -0.45556,-3.29464 -1.0921,-6.15146 -1.91211,-8.57031 L 340.314,117.6828 c -0.56864,-2.75688 -1.43086,-2.28436 -4.01935,-2.28436 h -16.42858 c -3.12301,-0.23469 -2.4451,0.23516 -1.32112,2.76296 z"
           style="font-style:normal;font-variant:normal;font-weight:bold;font-stretch:normal;font-family:'Segoe UI';-inkscape-font-specification:'Segoe UI Bold';fill:#ffffff;stroke-width:3.34752989px"
           transform="scale(0.25315137,0.27653155)" />
      </g>
      <g
         aria-label="Yajmaa"
         transform="matrix(0.95679258,0,0,1.0451586,9.6197523,0)"
         style="font-style:normal;font-variant:normal;font-weight:bold;font-stretch:normal;font-size:22.86685562px;line-height:125%;font-family:Ebrima;-inkscape-font-specification:'Ebrima Bold';letter-spacing:0px;word-spacing:0px;fill:#808080;fill-opacity:1;stroke:none;stroke-width:0.57167137px;stroke-linecap:butt;stroke-linejoin:miter;stroke-opacity:1"
         id="text834">
        <path
           d="m 132.9851,21.717816 -7.36517,14.572625 v 8.043332 h -5.09411 V 36.385069 L 113.3499,21.717816 h 5.8196 l 3.64315,8.437614 q 0.0946,0.236567 0.52045,1.845234 h 0.0631 q 0.20503,-1.135529 0.48891,-1.78215 l 3.70624,-8.500698 z"
           style="font-style:normal;font-variant:normal;font-weight:bold;font-stretch:normal;font-family:Ebrima;-inkscape-font-specification:'Ebrima Bold';fill:#6c6c6c;fill-opacity:1;stroke-width:0.80748743px"
           id="path836"
           inkscape:connector-curvature="0" />
        <path
           d="m 147.63087,44.333773 h -4.7156 v -2.318372 h -0.0631 q -1.62444,2.712654 -4.81022,2.712654 -2.34991,0 -3.70624,-1.324785 -1.34057,-1.340554 -1.34057,-3.5643 0,-4.699829 5.56726,-5.425306 l 4.38441,-0.583536 q 0,-2.649568 -2.87038,-2.649568 -2.88614,0 -5.48839,1.719065 V 29.14607 q 1.0409,-0.536222 2.83883,-0.946274 1.81368,-0.410052 3.29619,-0.410052 6.9078,0 6.9078,6.892032 z m -4.68406,-6.560835 v -1.088215 l -2.93346,0.37851 q -2.42877,0.315424 -2.42877,2.192201 0,0.851648 0.58353,1.403641 0.59931,0.536222 1.60867,0.536222 1.40364,0 2.28683,-0.962045 0.8832,-0.977818 0.8832,-2.460314 z"
           style="font-style:normal;font-variant:normal;font-weight:bold;font-stretch:normal;font-family:Ebrima;-inkscape-font-specification:'Ebrima Bold';fill:#6c6c6c;fill-opacity:1;stroke-width:0.80748743px"
           id="path838"
           inkscape:connector-curvature="0" />
        <path
           d="m 154.75038,25.629085 q -1.26169,0 -2.06603,-0.741249 -0.80433,-0.75702 -0.80433,-1.845235 0,-1.119759 0.80433,-1.829464 0.80434,-0.709706 2.06603,-0.709706 1.27748,0 2.06604,0.709706 0.80433,0.709705 0.80433,1.829464 0,1.135528 -0.80433,1.861005 -0.78856,0.725479 -2.06604,0.725479 z m 2.46031,18.420806 q 0,3.580072 -1.7506,5.72496 -1.75062,2.144889 -5.0468,2.144889 -1.08821,0 -2.38146,-0.473138 v -3.911267 q 1.04091,0.583536 1.84524,0.583536 2.34991,0 2.34991,-3.69047 V 28.184025 h 4.98371 z"
           style="font-style:normal;font-variant:normal;font-weight:bold;font-stretch:normal;font-family:Ebrima;-inkscape-font-specification:'Ebrima Bold';fill:#6c6c6c;fill-opacity:1;stroke-width:0.80748743px"
           id="path840"
           inkscape:connector-curvature="0" />
        <path
           d="m 188.45065,44.333773 h -4.96794 v -9.210402 q 0,-3.516987 -2.58648,-3.516987 -1.23016,0 -2.00294,1.056672 -0.7728,1.056674 -0.7728,2.633798 v 9.036919 h -4.98372 v -9.30503 q 0,-3.422359 -2.53915,-3.422359 -1.27749,0 -2.05027,1.009359 -0.75703,1.009359 -0.75703,2.744195 v 8.973835 h -4.9837 V 28.184025 h 4.9837 v 2.523398 h 0.0631 q 0.77278,-1.293242 2.16065,-2.097575 1.40365,-0.820104 3.05962,-0.820104 3.42237,0 4.68406,3.012306 1.84524,-3.012306 5.42531,-3.012306 5.26759,0 5.26759,6.49775 z"
           style="font-style:normal;font-variant:normal;font-weight:bold;font-stretch:normal;font-family:Ebrima;-inkscape-font-specification:'Ebrima Bold';fill:#6c6c6c;fill-opacity:1;stroke-width:0.80748743px"
           id="path842"
           inkscape:connector-curvature="0" />
        <path
           d="m 207.94724,44.333773 h -4.71561 v -2.318372 h -0.0631 q -1.62443,2.712654 -4.81022,2.712654 -2.34992,0 -3.70624,-1.324785 -1.34056,-1.340554 -1.34056,-3.5643 0,-4.699829 5.56725,-5.425306 l 4.3844,-0.583536 q 0,-2.649568 -2.87037,-2.649568 -2.88613,0 -5.48839,1.719065 V 29.14607 q 1.0409,-0.536222 2.83882,-0.946274 1.8137,-0.410052 3.2962,-0.410052 6.90781,0 6.90781,6.892032 z m -4.68407,-6.560835 v -1.088215 l -2.93344,0.37851 q -2.42877,0.315424 -2.42877,2.192201 0,0.851648 0.58353,1.403641 0.59931,0.536222 1.60867,0.536222 1.40363,0 2.28683,-0.962045 0.88318,-0.977818 0.88318,-2.460314 z"
           style="font-style:normal;font-variant:normal;font-weight:bold;font-stretch:normal;font-family:Ebrima;-inkscape-font-specification:'Ebrima Bold';fill:#6c6c6c;fill-opacity:1;stroke-width:0.80748743px"
           id="path844"
           inkscape:connector-curvature="0" />
        <path
           d="m 227.47537,44.333773 h -4.71562 v -2.318372 h -0.0631 q -1.62443,2.712654 -4.81022,2.712654 -2.34992,0 -3.70624,-1.324785 -1.34056,-1.340554 -1.34056,-3.5643 0,-4.699829 5.56725,-5.425306 l 4.3844,-0.583536 q 0,-2.649568 -2.87036,-2.649568 -2.88614,0 -5.4884,1.719065 V 29.14607 q 1.04091,-0.536222 2.83882,-0.946274 1.8137,-0.410052 3.29621,-0.410052 6.9078,0 6.9078,6.892032 z m -4.68408,-6.560835 v -1.088215 l -2.93344,0.37851 q -2.42877,0.315424 -2.42877,2.192201 0,0.851648 0.58353,1.403641 0.59931,0.536222 1.60867,0.536222 1.40364,0 2.28683,-0.962045 0.88318,-0.977818 0.88318,-2.460314 z"
           style="font-style:normal;font-variant:normal;font-weight:bold;font-stretch:normal;font-family:Ebrima;-inkscape-font-specification:'Ebrima Bold';fill:#6c6c6c;fill-opacity:1;stroke-width:0.80748743px"
           id="path846"
           inkscape:connector-curvature="0" />
      </g>
    </g>
  </g>
</svg>
