<?xml version="1.0" encoding="UTF-8" standalone="no"?>
<!-- Created with Inkscape (http://www.inkscape.org/) -->

<svg
   xmlns:dc="http://purl.org/dc/elements/1.1/"
   xmlns:cc="http://creativecommons.org/ns#"
   xmlns:rdf="http://www.w3.org/1999/02/22-rdf-syntax-ns#"
   xmlns:svg="http://www.w3.org/2000/svg"
   xmlns="http://www.w3.org/2000/svg"
   xmlns:sodipodi="http://sodipodi.sourceforge.net/DTD/sodipodi-0.dtd"
   xmlns:inkscape="http://www.inkscape.org/namespaces/inkscape"
   width="34.033001mm"
   height="37.579956mm"
   viewBox="0 0 34.033001 37.579956"
   version="1.1"
   id="svg8"
   inkscape:version="0.92.4 (5da689c313, 2019-01-14)"
   sodipodi:docname="logo.svg"
   inkscape:export-filename="C:\Users\EPAJX\Downloads\webDev\yajmaa2\favicon.png"
   inkscape:export-xdpi="47.765404"
   inkscape:export-ydpi="47.765404">
  <title
     id="title4579">Yajmaa Logo</title>
  <defs
     id="defs2" />
  <sodipodi:namedview
     id="base"
     pagecolor="#ffffff"
     bordercolor="#666666"
     borderopacity="1.0"
     inkscape:pageopacity="0.0"
     inkscape:pageshadow="2"
     inkscape:zoom="0.49497475"
     inkscape:cx="-580.65779"
     inkscape:cy="-241.25468"
     inkscape:document-units="mm"
     inkscape:current-layer="layer1"
     showgrid="false"
     inkscape:snap-global="false"
     inkscape:window-width="1366"
     inkscape:window-height="715"
     inkscape:window-x="-8"
     inkscape:window-y="-8"
     inkscape:window-maximized="1" />
  <metadata
     id="metadata5">
    <rdf:RDF>
      <cc:Work
         rdf:about="">
        <dc:format>image/svg+xml</dc:format>
        <dc:type
           rdf:resource="http://purl.org/dc/dcmitype/StillImage" />
        <dc:title>Yajmaa Logo</dc:title>
      </cc:Work>
    </rdf:RDF>
  </metadata>
  <g
     inkscape:label="Layer 1"
     inkscape:groupmode="layer"
     id="layer1"
     transform="translate(-75.047756,-16.185855)">
    <flowRoot
       xml:space="preserve"
       id="flowRoot14"
       style="font-style:normal;font-weight:normal;font-size:40px;line-height:125%;font-family:sans-serif;letter-spacing:0px;word-spacing:0px;fill:#000000;fill-opacity:1;stroke:none;stroke-width:1px;stroke-linecap:butt;stroke-linejoin:miter;stroke-opacity:1"
       transform="scale(0.26458333)"><flowRegion
         id="flowRegion16"><rect
           id="rect18"
           width="242.85715"
           height="240"
           x="197.14285"
           y="368.23398" /></flowRegion><flowPara
         id="flowPara20" /></flowRoot>    <g
       aria-label="y"
       transform="scale(1.0451586,0.95679259)"
       style="font-style:normal;font-variant:normal;font-weight:bold;font-stretch:normal;font-size:35.42802048px;line-height:125%;font-family:'Segoe UI';-inkscape-font-specification:'Segoe UI Bold';letter-spacing:0px;word-spacing:0px;fill:#ffffff;fill-opacity:1;stroke:none;stroke-width:0.88570058px;stroke-linecap:butt;stroke-linejoin:miter;stroke-opacity:1"
       id="text34">
      <g
         id="g4571">
        <path
           style="fill:#241daa;fill-opacity:1;stroke-width:0.26458332"
           inkscape:transform-center-x="1.2190476e-06"
           d="m 105.82918,40.33155 -3.61585,6.786691 -5.456903,0.85849 -7.355708,2.242123 -4.46566,-3.251571 -6.786691,-3.61585 -0.85849,-5.456907 -2.242123,-7.355707 3.251571,-4.46566 3.615851,-6.786691 5.456906,-0.858491 7.355708,-2.242123 4.465659,3.251572 6.78669,3.61585 0.85849,5.456906 2.24212,7.355708 z"
           inkscape:randomized="0"
           inkscape:rounded="0"
           inkscape:flatsided="false"
           sodipodi:arg2="0.94066496"
           sodipodi:arg1="0.47788426"
           sodipodi:r2="17.223696"
           sodipodi:r1="15.501571"
           sodipodi:cy="33.202354"
           sodipodi:cx="92.064255"
           sodipodi:sides="8"
           id="path30"
           sodipodi:type="star"
           transform="scale(0.9567926,1.0451586)" />
        <path
           style="font-style:normal;font-variant:normal;font-weight:bold;font-stretch:normal;font-family:'Segoe UI';-inkscape-font-specification:'Segoe UI Bold';opacity:0.2;fill:#185710;fill-opacity:1;stroke-width:0.88570064px"
           d="m 81.242288,33.507754 5.157952,12.6715 -0.93399,2.197129 c -0.553563,1.326245 -3.052843,3.64838 -4.459815,3.64838 -0.853409,0 -1.643282,-0.213316 -2.369834,-0.640021 v 4.359694 c 0.853409,0.299846 1.94297,0.449364 3.269215,0.449364 3.482831,0 7.608039,-3.959645 9.337921,-8.561138 l 4.941826,-13.137914 c 0.590615,-1.760953 1.232371,-1.75104 -0.561188,-1.75104 h -2.667132 c -1.232858,-0.121129 -1.247391,0.01809 -1.617352,1.216172 l -1.652638,5.351992 c -0.276783,0.888006 -0.467282,1.666506 -0.571074,2.335395 h -0.06922 c -0.115326,-0.911072 -0.276467,-1.701073 -0.484054,-2.369961 l -1.809751,-5.9019 C 86.609202,32.613042 86.39093,32.743708 85.73565,32.743708 h -4.158917 c -0.790595,-0.0649 -0.618981,0.06503 -0.334445,0.764046 z"
           id="path4565"
           inkscape:connector-curvature="0"
           sodipodi:nodetypes="cccsccsccccccccccccc" />
        <path
           sodipodi:nodetypes="cccsccsccccccccccccc"
           inkscape:connector-curvature="0"
           id="path36"
           d="m 318.54495,118.1614 20.37497,45.82298 -3.68945,7.94531 c -2.18669,4.796 -12.05936,13.19336 -17.61719,13.19336 -3.37114,0 -6.4913,-0.7714 -9.36133,-2.31446 v 15.76563 c 3.37114,1.08431 7.67513,1.625 12.91407,1.625 13.7579,0 30.05332,-14.31896 36.88671,-30.95899 l 19.52123,-47.50964 c 2.33305,-6.368 4.86812,-6.33215 -2.21681,-6.33215 h -10.53572 c -4.87004,-0.43803 -4.92745,0.0654 -6.38887,4.39795 l -6.52826,19.354 c -1.09335,3.21123 -1.84586,6.02646 -2.25586,8.44531 H 349.375 c -0.45556,-3.29464 -1.0921,-6.15146 -1.91211,-8.57031 L 340.314,117.6828 c -0.56864,-2.75688 -1.43086,-2.28436 -4.01935,-2.28436 h -16.42858 c -3.12301,-0.23469 -2.4451,0.23516 -1.32112,2.76296 z"
           style="font-style:normal;font-variant:normal;font-weight:bold;font-stretch:normal;font-family:'Segoe UI';-inkscape-font-specification:'Segoe UI Bold';fill:#ffffff;stroke-width:3.34752989px"
           transform="scale(0.25315137,0.27653155)" />
      </g>
    </g>
  </g>
</svg>
